<svg width="550" height="101" viewBox="0 0 550 101" fill="none" xmlns="http://www.w3.org/2000/svg">
<path d="M177.539 13.5781H166.57V44H162.094V13.5781H151.148V9.875H177.539V13.5781ZM186.258 21.7109C188.18 19.3516 190.68 18.1719 193.758 18.1719C199.117 18.1719 201.82 21.1953 201.867 27.2422V44H197.531V27.2188C197.516 25.3906 197.094 24.0391 196.266 23.1641C195.453 22.2891 194.18 21.8516 192.445 21.8516C191.039 21.8516 189.805 22.2266 188.742 22.9766C187.68 23.7266 186.852 24.7109 186.258 25.9297V44H181.922V8H186.258V21.7109ZM218.883 44.4688C215.445 44.4688 212.648 43.3438 210.492 41.0938C208.336 38.8281 207.258 35.8047 207.258 32.0234V31.2266C207.258 28.7109 207.734 26.4688 208.688 24.5C209.656 22.5156 211 20.9688 212.719 19.8594C214.453 18.7344 216.328 18.1719 218.344 18.1719C221.641 18.1719 224.203 19.2578 226.031 21.4297C227.859 23.6016 228.773 26.7109 228.773 30.7578V32.5625H211.594C211.656 35.0625 212.383 37.0859 213.773 38.6328C215.18 40.1641 216.961 40.9297 219.117 40.9297C220.648 40.9297 221.945 40.6172 223.008 39.9922C224.07 39.3672 225 38.5391 225.797 37.5078L228.445 39.5703C226.32 42.8359 223.133 44.4688 218.883 44.4688ZM218.344 21.7344C216.594 21.7344 215.125 22.375 213.938 23.6562C212.75 24.9219 212.016 26.7031 211.734 29H224.438V28.6719C224.312 26.4688 223.719 24.7656 222.656 23.5625C221.594 22.3438 220.156 21.7344 218.344 21.7344ZM250.898 30.6406V44H246.398V9.875H258.984C262.719 9.875 265.641 10.8281 267.75 12.7344C269.875 14.6406 270.938 17.1641 270.938 20.3047C270.938 23.6172 269.898 26.1719 267.82 27.9688C265.758 29.75 262.797 30.6406 258.938 30.6406H250.898ZM250.898 26.9609H258.984C261.391 26.9609 263.234 26.3984 264.516 25.2734C265.797 24.1328 266.438 22.4922 266.438 20.3516C266.438 18.3203 265.797 16.6953 264.516 15.4766C263.234 14.2578 261.477 13.625 259.242 13.5781H250.898V26.9609ZM286.195 44.4688C282.758 44.4688 279.961 43.3438 277.805 41.0938C275.648 38.8281 274.57 35.8047 274.57 32.0234V31.2266C274.57 28.7109 275.047 26.4688 276 24.5C276.969 22.5156 278.312 20.9688 280.031 19.8594C281.766 18.7344 283.641 18.1719 285.656 18.1719C288.953 18.1719 291.516 19.2578 293.344 21.4297C295.172 23.6016 296.086 26.7109 296.086 30.7578V32.5625H278.906C278.969 35.0625 279.695 37.0859 281.086 38.6328C282.492 40.1641 284.273 40.9297 286.43 40.9297C287.961 40.9297 289.258 40.6172 290.32 39.9922C291.383 39.3672 292.312 38.5391 293.109 37.5078L295.758 39.5703C293.633 42.8359 290.445 44.4688 286.195 44.4688ZM285.656 21.7344C283.906 21.7344 282.438 22.375 281.25 23.6562C280.062 24.9219 279.328 26.7031 279.047 29H291.75V28.6719C291.625 26.4688 291.031 24.7656 289.969 23.5625C288.906 22.3438 287.469 21.7344 285.656 21.7344ZM313.383 22.5312C312.727 22.4219 312.016 22.3672 311.25 22.3672C308.406 22.3672 306.477 23.5781 305.461 26V44H301.125V18.6406H305.344L305.414 21.5703C306.836 19.3047 308.852 18.1719 311.461 18.1719C312.305 18.1719 312.945 18.2812 313.383 18.5V22.5312ZM319.898 44V21.9922H315.891V18.6406H319.898V16.0391C319.898 13.3203 320.625 11.2187 322.078 9.73438C323.531 8.25 325.586 7.50781 328.242 7.50781C329.242 7.50781 330.234 7.64063 331.219 7.90625L330.984 11.4219C330.25 11.2812 329.469 11.2109 328.641 11.2109C327.234 11.2109 326.148 11.625 325.383 12.4531C324.617 13.2656 324.234 14.4375 324.234 15.9688V18.6406H329.648V21.9922H324.234V44H319.898ZM344.414 44.4688C340.977 44.4688 338.18 43.3438 336.023 41.0938C333.867 38.8281 332.789 35.8047 332.789 32.0234V31.2266C332.789 28.7109 333.266 26.4688 334.219 24.5C335.188 22.5156 336.531 20.9688 338.25 19.8594C339.984 18.7344 341.859 18.1719 343.875 18.1719C347.172 18.1719 349.734 19.2578 351.562 21.4297C353.391 23.6016 354.305 26.7109 354.305 30.7578V32.5625H337.125C337.188 35.0625 337.914 37.0859 339.305 38.6328C340.711 40.1641 342.492 40.9297 344.648 40.9297C346.18 40.9297 347.477 40.6172 348.539 39.9922C349.602 39.3672 350.531 38.5391 351.328 37.5078L353.977 39.5703C351.852 42.8359 348.664 44.4688 344.414 44.4688ZM343.875 21.7344C342.125 21.7344 340.656 22.375 339.469 23.6562C338.281 24.9219 337.547 26.7031 337.266 29H349.969V28.6719C349.844 26.4688 349.25 24.7656 348.188 23.5625C347.125 22.3438 345.688 21.7344 343.875 21.7344ZM369.516 40.9297C371.062 40.9297 372.414 40.4609 373.57 39.5234C374.727 38.5859 375.367 37.4141 375.492 36.0078H379.594C379.516 37.4609 379.016 38.8438 378.094 40.1562C377.172 41.4688 375.938 42.5156 374.391 43.2969C372.859 44.0781 371.234 44.4688 369.516 44.4688C366.062 44.4688 363.312 43.3203 361.266 41.0234C359.234 38.7109 358.219 35.5547 358.219 31.5547V30.8281C358.219 28.3594 358.672 26.1641 359.578 24.2422C360.484 22.3203 361.781 20.8281 363.469 19.7656C365.172 18.7031 367.18 18.1719 369.492 18.1719C372.336 18.1719 374.695 19.0234 376.57 20.7266C378.461 22.4297 379.469 24.6406 379.594 27.3594H375.492C375.367 25.7188 374.742 24.375 373.617 23.3281C372.508 22.2656 371.133 21.7344 369.492 21.7344C367.289 21.7344 365.578 22.5312 364.359 24.125C363.156 25.7031 362.555 27.9922 362.555 30.9922V31.8125C362.555 34.7344 363.156 36.9844 364.359 38.5625C365.562 40.1406 367.281 40.9297 369.516 40.9297ZM390.352 12.5V18.6406H395.086V21.9922H390.352V37.7188C390.352 38.7344 390.562 39.5 390.984 40.0156C391.406 40.5156 392.125 40.7656 393.141 40.7656C393.641 40.7656 394.328 40.6719 395.203 40.4844V44C394.062 44.3125 392.953 44.4688 391.875 44.4688C389.938 44.4688 388.477 43.8828 387.492 42.7109C386.508 41.5391 386.016 39.875 386.016 37.7188V21.9922H381.398V18.6406H386.016V12.5H390.352ZM412.758 44V9.875H422.391C425.359 9.875 427.984 10.5312 430.266 11.8438C432.547 13.1562 434.305 15.0234 435.539 17.4453C436.789 19.8672 437.422 22.6484 437.438 25.7891V27.9688C437.438 31.1875 436.812 34.0078 435.562 36.4297C434.328 38.8516 432.555 40.7109 430.242 42.0078C427.945 43.3047 425.266 43.9688 422.203 44H412.758ZM417.258 13.5781V40.3203H421.992C425.461 40.3203 428.156 39.2422 430.078 37.0859C432.016 34.9297 432.984 31.8594 432.984 27.875V25.8828C432.984 22.0078 432.07 19 430.242 16.8594C428.43 14.7031 425.852 13.6094 422.508 13.5781H417.258ZM442.43 31.0859C442.43 28.6016 442.914 26.3672 443.883 24.3828C444.867 22.3984 446.227 20.8672 447.961 19.7891C449.711 18.7109 451.703 18.1719 453.938 18.1719C457.391 18.1719 460.18 19.3672 462.305 21.7578C464.445 24.1484 465.516 27.3281 465.516 31.2969V31.6016C465.516 34.0703 465.039 36.2891 464.086 38.2578C463.148 40.2109 461.797 41.7344 460.031 42.8281C458.281 43.9219 456.266 44.4688 453.984 44.4688C450.547 44.4688 447.758 43.2734 445.617 40.8828C443.492 38.4922 442.43 35.3281 442.43 31.3906V31.0859ZM446.789 31.6016C446.789 34.4141 447.438 36.6719 448.734 38.375C450.047 40.0781 451.797 40.9297 453.984 40.9297C456.188 40.9297 457.938 40.0703 459.234 38.3516C460.531 36.6172 461.18 34.1953 461.18 31.0859C461.18 28.3047 460.516 26.0547 459.188 24.3359C457.875 22.6016 456.125 21.7344 453.938 21.7344C451.797 21.7344 450.07 22.5859 448.758 24.2891C447.445 25.9922 446.789 28.4297 446.789 31.6016ZM469.922 31.1094C469.922 27.1562 470.836 24.0156 472.664 21.6875C474.492 19.3438 476.914 18.1719 479.93 18.1719C483.023 18.1719 485.438 19.2656 487.172 21.4531L487.383 18.6406H491.344V43.3906C491.344 46.6719 490.367 49.2578 488.414 51.1484C486.477 53.0391 483.867 53.9844 480.586 53.9844C478.758 53.9844 476.969 53.5938 475.219 52.8125C473.469 52.0312 472.133 50.9609 471.211 49.6016L473.461 47C475.32 49.2969 477.594 50.4453 480.281 50.4453C482.391 50.4453 484.031 49.8516 485.203 48.6641C486.391 47.4766 486.984 45.8047 486.984 43.6484V41.4688C485.25 43.4688 482.883 44.4688 479.883 44.4688C476.914 44.4688 474.508 43.2734 472.664 40.8828C470.836 38.4922 469.922 35.2344 469.922 31.1094ZM474.281 31.6016C474.281 34.4609 474.867 36.7109 476.039 38.3516C477.211 39.9766 478.852 40.7891 480.961 40.7891C483.695 40.7891 485.703 39.5469 486.984 37.0625V25.4844C485.656 23.0625 483.664 21.8516 481.008 21.8516C478.898 21.8516 477.25 22.6719 476.062 24.3125C474.875 25.9531 474.281 28.3828 474.281 31.6016ZM155.414 100V77.9922H151.406V74.6406H155.414V72.0391C155.414 69.3203 156.141 67.2188 157.594 65.7344C159.047 64.25 161.102 63.5078 163.758 63.5078C164.758 63.5078 165.75 63.6406 166.734 63.9062L166.5 67.4219C165.766 67.2812 164.984 67.2109 164.156 67.2109C162.75 67.2109 161.664 67.625 160.898 68.4531C160.133 69.2656 159.75 70.4375 159.75 71.9688V74.6406H165.164V77.9922H159.75V100H155.414ZM168.82 87.0859C168.82 84.6016 169.305 82.3672 170.273 80.3828C171.258 78.3984 172.617 76.8672 174.352 75.7891C176.102 74.7109 178.094 74.1719 180.328 74.1719C183.781 74.1719 186.57 75.3672 188.695 77.7578C190.836 80.1484 191.906 83.3281 191.906 87.2969V87.6016C191.906 90.0703 191.43 92.2891 190.477 94.2578C189.539 96.2109 188.188 97.7344 186.422 98.8281C184.672 99.9219 182.656 100.469 180.375 100.469C176.938 100.469 174.148 99.2734 172.008 96.8828C169.883 94.4922 168.82 91.3281 168.82 87.3906V87.0859ZM173.18 87.6016C173.18 90.4141 173.828 92.6719 175.125 94.375C176.438 96.0781 178.188 96.9297 180.375 96.9297C182.578 96.9297 184.328 96.0703 185.625 94.3516C186.922 92.6172 187.57 90.1953 187.57 87.0859C187.57 84.3047 186.906 82.0547 185.578 80.3359C184.266 78.6016 182.516 77.7344 180.328 77.7344C178.188 77.7344 176.461 78.5859 175.148 80.2891C173.836 81.9922 173.18 84.4297 173.18 87.6016ZM209.602 78.5312C208.945 78.4219 208.234 78.3672 207.469 78.3672C204.625 78.3672 202.695 79.5781 201.68 82V100H197.344V74.6406H201.562L201.633 77.5703C203.055 75.3047 205.07 74.1719 207.68 74.1719C208.523 74.1719 209.164 74.2812 209.602 74.5V78.5312ZM236.602 83.0078L245.508 65.875H250.617L238.852 87.2734V100H234.352V87.2734L222.586 65.875H227.742L236.602 83.0078ZM251.648 87.0859C251.648 84.6016 252.133 82.3672 253.102 80.3828C254.086 78.3984 255.445 76.8672 257.18 75.7891C258.93 74.7109 260.922 74.1719 263.156 74.1719C266.609 74.1719 269.398 75.3672 271.523 77.7578C273.664 80.1484 274.734 83.3281 274.734 87.2969V87.6016C274.734 90.0703 274.258 92.2891 273.305 94.2578C272.367 96.2109 271.016 97.7344 269.25 98.8281C267.5 99.9219 265.484 100.469 263.203 100.469C259.766 100.469 256.977 99.2734 254.836 96.8828C252.711 94.4922 251.648 91.3281 251.648 87.3906V87.0859ZM256.008 87.6016C256.008 90.4141 256.656 92.6719 257.953 94.375C259.266 96.0781 261.016 96.9297 263.203 96.9297C265.406 96.9297 267.156 96.0703 268.453 94.3516C269.75 92.6172 270.398 90.1953 270.398 87.0859C270.398 84.3047 269.734 82.0547 268.406 80.3359C267.094 78.6016 265.344 77.7344 263.156 77.7344C261.016 77.7344 259.289 78.5859 257.977 80.2891C256.664 81.9922 256.008 84.4297 256.008 87.6016ZM295.828 97.4922C294.141 99.4766 291.664 100.469 288.398 100.469C285.695 100.469 283.633 99.6875 282.211 98.125C280.805 96.5469 280.094 94.2188 280.078 91.1406V74.6406H284.414V91.0234C284.414 94.8672 285.977 96.7891 289.102 96.7891C292.414 96.7891 294.617 95.5547 295.711 93.0859V74.6406H300.047V100H295.922L295.828 97.4922Z" fill="white"/>
<path d="M85.8554 79.092C85.8284 90.3564 76.4914 99.9427 65.8825 99.9999C63.1793 100.015 60.8923 98.809 58.7514 97.2329C50.3878 91.0749 49.6451 91.0587 41.3073 97.2378C38.2997 99.4666 35.1215 100.349 31.3614 99.7152C21.9003 98.1216 14.3801 89.5285 14.2057 79.7881C14.1419 76.2119 15.3695 73.1018 17.7154 70.433C19.6563 68.2241 21.8892 66.3334 24.1996 64.5584C28.1303 61.539 31.3061 57.8646 34.0056 53.7141C35.9894 50.6637 37.8823 47.5375 40.5155 44.9768C46.1342 39.5124 53.9184 39.5112 59.5346 44.9743C61.4754 46.8613 63.0787 49.0291 64.4622 51.3387C68.0553 57.3326 72.6944 62.301 78.2002 66.5423C81.7283 69.2595 84.8721 72.4057 85.6197 77.1789C85.7425 77.9633 85.8149 78.7539 85.8554 79.092Z" fill="white"/>
<path d="M0 41.0762C0.0601521 37.2451 0.742694 34.0182 2.5669 31.1207C6.33438 25.1355 13.107 24.008 18.5833 28.4283C25.2135 33.7808 27.368 44.7307 23.2666 52.2287C19.531 59.0579 11.8942 60.3445 6.20426 55.0802C2.01939 51.2094 0.274981 46.2484 0 41.0762Z" fill="white"/>
<path d="M23.1008 15.2682C23.1512 12.536 24.0375 8.8032 26.3233 5.50666C31.5921 -2.09078 40.7745 -1.81607 45.3645 6.26492C49.4302 13.4248 49.24 20.7301 44.6672 27.6277C40.2479 34.2917 32.2268 34.5726 27.1089 28.4469C24.623 25.4736 23.1057 20.9539 23.1008 15.2682Z" fill="white"/>
<path d="M76.9812 16.9762C76.7762 21.4163 75.529 25.839 72.0843 29.3705C67.541 34.0282 61.1551 33.9548 56.6424 29.2437C50.2651 22.586 50.4001 9.91947 56.9186 3.41839C61.8266 -1.47669 68.6041 -1.04287 72.9375 4.42276C75.761 7.98282 76.9039 12.0985 76.9812 16.9762Z" fill="white"/>
<path d="M99.9752 39.6951C99.7014 46.108 97.4635 51.6047 92.3236 55.5899C85.2232 61.0965 76.4336 57.8596 74.5161 49.0204C72.9583 41.8406 75.0759 35.6068 80.0378 30.4793C83.3818 27.0249 87.5519 25.1242 92.4267 26.8956C97.4893 28.7353 99.2951 33.0424 99.9641 38.0307C100.038 38.5764 99.9752 39.1407 99.9752 39.6951Z" fill="white"/>
</svg>
